<svg version="1.1" id="Layer_1" xmlns:x="ns_extend;" xmlns:i="ns_ai;" xmlns:graph="ns_graphs;" xmlns="http://www.w3.org/2000/svg" xmlns:xlink="http://www.w3.org/1999/xlink" x="0px" y="0px" viewBox="0 0 199.6 85" style="enable-background:new 0 0 199.6 85;" xml:space="preserve">
 <style type="text/css">
  .st0{fill:#FFFFFF;}
 </style>
 <metadata>
  <sfw xmlns="ns_sfw;">
   <slices>
   </slices>
   <sliceSourceBounds bottomLeftOrigin="true" height="85" width="199.6" x="-320.4" y="-205.5">
   </sliceSourceBounds>
  </sfw>
 </metadata>
 <g>
  <g>
   <path class="st0" d="M78.7,42.4V14.3h8.8c5.8,0,10.1,3.5,10.1,9.4c0,6-4.2,9.6-10.1,9.6h-3.4v9.2H78.7z M84.1,28h3.1
			c2.7,0,4.7-1.5,4.7-4.3c0-2.8-2-4.2-4.7-4.2h-3.1V28z M170.1,73.4c-4,0-9-2.2-9-9.1v-9.9h5.1v9.6c0,3.2,1.4,4.6,3.9,4.6
			c2.3,0,3.9-1.6,3.9-4.6v-9.6h5.1v9.9C179.1,71.2,174.1,73.4,170.1,73.4 M126.5,73.4c-4.9,0-9.1-4.5-9.1-9.8c0-5.2,4.2-9.6,9.1-9.6
			c2.7,0,4.6,1,5.7,2.7l0.5-2.4h4.5v18.5h-4.5l-0.5-2.4C131.1,72.2,129,73.4,126.5,73.4 M127.5,58.7c-2.7,0-4.8,2.1-4.8,4.9
			c0,2.7,2.1,4.8,4.8,4.8c2.7,0,4.7-2.1,4.7-4.8C132.3,60.8,130.2,58.7,127.5,58.7 M160.8,23.9h5.1v18.5h-5.1V23.9z M163.4,21.4
			c-1.8,0-3.1-1.4-3.1-3.1c0-1.8,1.4-3.2,3.1-3.2c1.8,0,3.2,1.4,3.2,3.2C166.5,20,165.1,21.4,163.4,21.4 M153.2,31.5
			c0-2-1.1-3.3-2.8-3.3c-2,0-3,1.2-3,3.3v10.9h-5.1V31.5c0-2-1.1-3.3-2.8-3.3c-2,0-3,1.2-3,3.3v10.9h-5.1V23.9h4.5l0.5,2.4
			c0,0,1.1-2.9,4.5-2.9c2.1,0,3.9,0.9,5.1,2.8l0.1,0.2l0.1-0.2c1.8-2.6,4-2.8,5.3-2.8c3.9,0,6.6,3,6.6,7.2v11.8h-5.1V31.5z
			 M188.5,42.4V23.9h4.4l0.5,2.7c0.8-1.7,2.5-2.9,4.7-2.9c0.5,0,1,0.1,1.4,0.2v4.9c-0.6-0.1-1.2-0.2-1.8-0.2c-2.5,0-4.2,1.5-4.2,4.5
			v9.3H188.5z M99.3,42.4V23.9h4.4l0.5,2.7c0.8-1.7,2.5-2.9,4.7-2.9c0.5,0,1,0.1,1.4,0.2v4.9c-0.6-0.1-1.2-0.2-1.8-0.2
			c-2.5,0-4.2,1.5-4.2,4.5v9.3H99.3z M78.7,72.9V45.4h5.4v22.3h11.8v5.2H78.7z M106.8,73.4c-5.7,0-9.9-3.9-9.9-9.7
			c0-5.2,3.8-9.8,9.7-9.8c4.5,0,9,3.4,9,9.7c0,0.5,0,1.1-0.1,1.8h-13.4c0.5,2.1,2.3,3.5,4.6,3.5c2.1,0,3.6-0.8,4.9-2.1l3.1,3.2
			C112.8,72.1,109.9,73.4,106.8,73.4 M106.5,58.4c-2.1,0-3.9,1.2-4.3,3.3h8.5C110.3,59.7,108.6,58.4,106.5,58.4 M190.7,73.4
			c-5.7,0-9.9-3.9-9.9-9.7c0-5.2,3.8-9.8,9.7-9.8c4.5,0,9,3.4,9,9.7c0,0.5,0,1.1-0.1,1.8h-13.4c0.5,2.1,2.3,3.5,4.6,3.5
			c2.1,0,3.6-0.8,4.9-2.1l3.1,3.2C196.7,72.1,193.8,73.4,190.7,73.4 M190.5,58.4c-2.1,0-3.9,1.2-4.3,3.3h8.5
			C194.2,59.7,192.5,58.4,190.5,58.4 M177.7,42.9c-5.7,0-9.9-3.9-9.9-9.7c0-5.2,3.8-9.8,9.7-9.8c4.5,0,9,3.4,9,9.7
			c0,0.5,0,1.1-0.1,1.8H173c0.5,2.1,2.3,3.5,4.6,3.5c2.1,0,3.6-0.8,4.9-2.1l3.1,3.2C183.6,41.7,180.7,42.9,177.7,42.9 M177.4,27.9
			c-2.1,0-3.9,1.2-4.3,3.3h8.5C181.2,29.2,179.4,27.9,177.4,27.9 M120.5,42.9c-5.7,0-9.9-3.9-9.9-9.7c0-5.2,3.8-9.8,9.7-9.8
			c4.5,0,9,3.4,9,9.7c0,0.5,0,1.1-0.1,1.8h-13.4c0.5,2.1,2.3,3.5,4.6,3.5c2.1,0,3.6-0.8,4.9-2.1l3.1,3.2
			C126.4,41.7,123.6,42.9,120.5,42.9 M120.2,27.9c-2.1,0-3.9,1.2-4.3,3.3h8.5C124,29.2,122.3,27.9,120.2,27.9 M149.2,58.7
			c-2.7,0-4.8,2.1-4.8,4.9c0,2.7,2.1,4.8,4.8,4.8c2.7,0,4.8-2.1,4.8-4.8C154,60.8,151.8,58.7,149.2,58.7 M153.7,56.7l0.5-2.4h4.5
			v17.7c0,3.5-1,5.9-3.2,7.7c-1.7,1.3-4,2.3-6.8,2.3c-3.8,0-6.6-1.3-8.8-3.5l2.8-3.9c1.4,1.3,3.2,2.5,5.6,2.5c3.8,0,5.4-1.9,5.4-4.6
			v-1.3c-1.5,1.6-3.3,2.2-5.3,2.2c-5.2,0-9.3-4.3-9.3-9.8c0-5.4,4.2-9.6,9.4-9.6C150.7,54.1,152.6,55.1,153.7,56.7 M14.3,7
			c3.7,1.7,6,3.8,6.4,4.2c-0.2-1-0.9-5.5-1.3-8.4c2.1,1.5,7.1,5,8.7,6.1C28.7,6.8,31,0,31,0s4.1,6.8,4.9,7.9C36.8,7,41.7,1.4,43,0
			c0.2,3.2,0.5,7.8,0.6,8.5c0.3-0.3,2.2-3,5.3-5.5c-1.4,2.7-2,6.5-2.3,9.6c-3.1-0.9-6.4-1.4-9.8-1.4c-6.5,0-12.7,1.7-18,4.8
			C17.8,13,16.3,9.4,14.3,7 M52.4,45.2l0-4.7c0,0-2.1-0.7-4.3-2.4c-4.5,0.7-9.9,5.2-9.9,5.2s1.8,3.5,3.8,7.3
			C45.5,51.1,50.7,46.6,52.4,45.2 M56.9,53.7c0,0-0.4-2-1.9-3.8L51.5,50c0,0-4.7,4.1-7.6,4.2c0,0,1.6,3,2.4,4.5
			c1.6-0.3,4.4-1.6,5.5-2.9c0,0,0.7,2.4,0.6,5.3C53.9,60.2,56.1,57.7,56.9,53.7 M58.3,38.2c-1.8,1.5-3.3,2.3-3.3,2.3l0,4.7
			c1.3,1.4,2.5,2.6,3.4,4.7C60.3,46.8,59.9,42.1,58.3,38.2 M58.7,34l0.3-2.2c0.1-1.2-0.2-3.2-1.9-5.2c-2-2.3-7.2-6-9.6-6.9
			c0,0-0.2,2.4-1,3.5c-4.9-3.6-7.3-4.4-7.3-4.4c-5.4,0.8-8.8,2.9-10.7,4.5l1.6,1.4c-3.2,1-5.3,3.8-5.3,3.8c0,0,2.9,0.5,2.9,0.5
			s-0.3,3.4,3.9,5.5c3.6,1.8,8.8-0.4,13.7,1.5c-3.2-3.7-5.4-5.4-5.4-5.4s-1.3-0.3-2.2-0.3c-1.1,0-2.8,0.2-4.6-0.5
			c-0.9-0.3-1.9-1-2.7-1.5c0,0,2.2-2.3,5.5-2.9c0,0,3,0.8,5.3,2.6c1.6-1.5,3.2-1.5,3.2-1.5s-1.6,1.5-1.1,3.4
			c2.4,2.1,4.9,5.1,4.9,5.1c2.6-1.4,8.2-1.1,9.4,0.2c-1.5-1.9-3.6-3.5-5.2-4.9c-0.2-0.7-2-3.2-2.3-3.5c0,0,1.7,0.5,3.2,1.9
			c0.4-0.6,1.3-1.3,2.4-1.5c1.1,1,1.3,2.5,1.3,2.7c-0.5,0.6-1,0.9-1,0.9L58.7,34l0.3-2.2 M61.4,35.7c4.2,7.8,5.2,17.2,2.3,26.5
			c-0.2-0.2-2.4-2.7-3.3-3.7c-0.6,9.1-3.2,16.2-11,22.2c0,0-0.7-2.9-1.2-4.7c-12.8,9.5-23.8,5.1-26.9,3.6
			c2.4-11.1,0.5-17.5-1.1-22.3c-3.4,5.7-6.9,10-10.4,13c-2.4-5.6-2.6-16.1-0.6-22.2c-0.6,0.2-4.4,1.4-6.5,2c0.8-5.7,4.5-13.2,8.4-17
			C10.6,33,8.6,32.7,7,32.5c1-2,3.8-5.7,8.2-9.2c-0.1,2.5,0.8,5.4,3.5,6.8c-1.8-3.1-2-6.9-0.1-8.9c1.8-2,4.9-1.3,6.9,0.2
			c-0.4-1.1-1.2-2.3-2.3-3.1c5.4-2.5,12-4,19.4-2.9c1.1,1,2.4,2.4,3.1,3.3c0-0.6-0.1-1.8-0.3-2.8c3,0.7,6.2,1.9,9.5,3.6
			c-5.9-5.9-17.8-7.7-27.7-4.8c-2.3,0.7-4.5,1.6-6.6,2.6c-2.2,0-3.6,1.4-4.4,2.6c-6.4,4.3-11,9.9-13.2,14.6c0.5,0.1,2,0.3,3.4,0.5
			C3.5,39.1-0.2,46.8,0,53.8c0.6-0.2,4.1-1.3,5.8-1.8c-0.9,6.1-0.6,16.4,3.3,22.3c5-3.6,7.8-7.3,10.2-10.6c0.6,3,1.2,8.4-0.9,17.3
			c1.7,1.3,14.1,7.9,28.2-0.7l1.2,4.7l1.5-1c8.6-5.6,11.8-13.2,13-19.4c0.4,0.4,2,2.2,2.5,2.7C67,61.4,71.3,47.2,61.4,35.7">
   </path>
  </g>
 </g>
</svg>